<svg width="40" height="40" viewBox="0 0 40 40" fill="none" xmlns="http://www.w3.org/2000/svg">
<path d="M40 20C40 31.0457 31.0457 40 20 40C8.9543 40 0 31.0457 0 20C0 8.9543 8.9543 0 20 0C31.0457 0 40 8.9543 40 20Z" fill="#5ABDF3"/>
<g clip-path="url(#clip0_298_2155)">
<path fill-rule="evenodd" clip-rule="evenodd" d="M27.6998 23.9481C27.6998 26.1483 24.2996 28.2483 20 28.2483C15.7004 28.2483 12.3002 26.0481 12.3002 23.9481V18.4479L20 16.1481L27.6998 18.3483V23.9481Z" fill="#4E5968"/>
<path fill-rule="evenodd" clip-rule="evenodd" d="M9.00019 15.9482L18.9998 10.1481C19.5998 9.74785 20.3996 9.74785 20.9996 10.1481L30.9998 15.9482C31.7 16.3484 31.7 17.2484 30.9998 17.648L20.9996 23.4482C20.3996 23.8484 19.5998 23.8484 18.9998 23.4482L9.00019 17.648C8.29999 17.2478 8.29999 16.3478 9.00019 15.9482Z" fill="#6B7683"/>
<path fill-rule="evenodd" clip-rule="evenodd" d="M20.3 16.2483L19.2002 15.3483L12.2 19.7481V28.1481C12.2 28.5483 12.5 28.8483 12.9002 28.8483C13.3004 28.8483 13.6004 28.5483 13.6004 28.1481V20.4483L20.3 16.2483Z" fill="#FFC100"/>
<path fill-rule="evenodd" clip-rule="evenodd" d="M21.6002 15.6483C21.6002 16.2483 20.9 16.7481 20 16.7481C19.1 16.7481 18.3998 16.2483 18.3998 15.6483C18.3998 15.0483 19.1 14.5485 20 14.5485C20.9 14.4483 21.6002 15.0483 21.6002 15.6483Z" fill="#303D4C"/>
<path fill-rule="evenodd" clip-rule="evenodd" d="M12.9998 26.0481C12.2 26.0481 11.6 26.6481 11.6 27.3483V29.4255C11.6 29.7369 12.2228 30.1527 12.95 30.1527C13.6772 30.1527 14.3 29.8413 14.3 29.4255V27.3483C14.3 26.6481 13.8002 26.0481 12.9998 26.0481Z" fill="#FFDA16"/>
</g>
<defs>
<clipPath id="clip0_298_2155">
<rect width="24" height="24" fill="white" transform="translate(8 8)"/>
</clipPath>
</defs>
</svg>
