<svg width="40" height="40" viewBox="0 0 40 40" fill="none" xmlns="http://www.w3.org/2000/svg">
<circle cx="20" cy="20" r="20" fill="#FFA381"/>
<g clip-path="url(#clip0_370_2430)">
<path fill-rule="evenodd" clip-rule="evenodd" d="M31.2974 24.0098L29.5706 15.2654C29.5694 15.2612 29.5682 15.257 29.5676 15.2546L29.5646 15.233H29.5616C29.0732 12.9044 26.9786 11.0636 24.5966 11.0636H15.404C13.0226 11.0636 10.9274 12.9044 10.439 15.233H10.436L10.433 15.2546C10.433 15.2546 10.4306 15.2612 10.43 15.2654L8.70319 24.0098C8.64139 24.2804 8.60059 24.5594 8.60059 24.848C8.60059 26.9084 10.2716 28.5782 12.332 28.5782C13.739 28.5782 14.9492 27.7904 15.5852 26.6402L16.7828 24.632L17.4716 23.4776C17.6864 23.1176 18.074 22.8974 18.4934 22.8974H21.509C21.9278 22.8974 22.316 23.1176 22.5308 23.4776L23.2196 24.632L24.4172 26.6402C25.0532 27.7904 26.2634 28.5782 27.6704 28.5782C29.7308 28.5782 31.4018 26.9084 31.4018 24.848C31.4018 24.5594 31.361 24.2804 31.2992 24.0098H31.2974Z" fill="#3D3D3D"/>
<path d="M18.668 16.193H13.1354V17.6804H18.668V16.193Z" fill="#767676"/>
<path d="M16.6454 14.1704H15.158V19.703H16.6454V14.1704Z" fill="#767676"/>
<path d="M22.5884 17.8063C23.0686 17.8063 23.4578 17.4171 23.4578 16.9369C23.4578 16.4567 23.0686 16.0675 22.5884 16.0675C22.1082 16.0675 21.719 16.4567 21.719 16.9369C21.719 17.4171 22.1082 17.8063 22.5884 17.8063Z" fill="#00BC79"/>
<path d="M26.2484 17.8063C26.7285 17.8063 27.1178 17.4171 27.1178 16.9369C27.1178 16.4567 26.7285 16.0675 26.2484 16.0675C25.7682 16.0675 25.379 16.4567 25.379 16.9369C25.379 17.4171 25.7682 17.8063 26.2484 17.8063Z" fill="#EF4452"/>
<path d="M24.4184 15.9763C24.8986 15.9763 25.2878 15.5871 25.2878 15.1069C25.2878 14.6268 24.8986 14.2375 24.4184 14.2375C23.9383 14.2375 23.549 14.6268 23.549 15.1069C23.549 15.5871 23.9383 15.9763 24.4184 15.9763Z" fill="#64A7FF"/>
<path d="M24.4184 19.6364C24.8986 19.6364 25.2878 19.2471 25.2878 18.767C25.2878 18.2868 24.8986 17.8976 24.4184 17.8976C23.9383 17.8976 23.549 18.2868 23.549 18.767C23.549 19.2471 23.9383 19.6364 24.4184 19.6364Z" fill="#FFC84D"/>
</g>
<defs>
<clipPath id="clip0_370_2430">
<rect width="24" height="24" fill="white" transform="translate(8 8)"/>
</clipPath>
</defs>
</svg>
