<svg width="40" height="40" viewBox="0 0 40 40" fill="none" xmlns="http://www.w3.org/2000/svg">
<path d="M40 20C40 31.0457 31.0457 40 20 40C8.9543 40 0 31.0457 0 20C0 8.9543 8.9543 0 20 0C31.0457 0 40 8.9543 40 20Z" fill="#FFD9D9"/>
<g clip-path="url(#clip0_298_2163)">
<path d="M13.8722 31.7534C13.7108 31.7534 13.547 31.712 13.397 31.625C12.941 31.3622 12.7844 30.7796 13.0484 30.3236L17.4992 22.6142C17.762 22.1588 18.344 22.0016 18.8006 22.2656C19.2566 22.5284 19.4132 23.111 19.1492 23.567L14.6984 31.2764C14.522 31.5824 14.2022 31.7534 13.8722 31.7534Z" fill="#4B596A"/>
<path d="M28.913 13.9226L20.9702 9.3368C20.297 8.948 19.4558 9.434 19.4558 10.211V11.6252C19.4558 13.4288 18.494 15.095 16.9322 15.9968L11.0876 19.3712C10.4144 19.76 10.4144 20.7314 11.0876 21.1196L23.6498 28.3724C24.323 28.7612 25.1642 28.2752 25.1642 27.4982V20.7494C25.1642 18.9458 26.126 17.2796 27.6878 16.3778L28.913 15.6704C29.5862 15.2816 29.5862 14.3102 28.913 13.922V13.9226Z" fill="#EF4452"/>
</g>
<defs>
<clipPath id="clip0_298_2163">
<rect width="24" height="24" fill="white" transform="translate(8 8)"/>
</clipPath>
</defs>
</svg>
