<svg width="40" height="40" viewBox="0 0 40 40" fill="none" xmlns="http://www.w3.org/2000/svg">
<path d="M40 20C40 31.0457 31.0457 40 20 40C8.9543 40 0 31.0457 0 20C0 8.9543 8.9543 0 20 0C31.0457 0 40 8.9543 40 20Z" fill="#F4C35C"/>
<g clip-path="url(#clip0_241_1649)">
<path d="M27.9423 24.7453C28.2111 24.6475 28.4499 24.4633 28.6047 24.1963C28.7649 23.9191 28.8027 23.6077 28.7439 23.3173C28.9917 23.1739 29.1951 22.9513 29.3007 22.6615C29.4099 22.3609 29.3931 22.0477 29.2851 21.7717C29.5041 21.5875 29.6655 21.3331 29.7195 21.0289C29.7747 20.7139 29.7045 20.4079 29.5497 20.1553C29.7333 19.9363 29.8485 19.6573 29.8485 19.3489C29.8485 19.0291 29.7255 18.7405 29.5293 18.5179C29.6721 18.2701 29.7369 17.9755 29.6835 17.6719C29.6277 17.3569 29.4567 17.0941 29.2251 16.9087C29.3229 16.6399 29.3355 16.3387 29.2299 16.0483C29.1207 15.7477 28.9065 15.5185 28.6461 15.3763C28.6953 15.0943 28.6557 14.7955 28.5015 14.5285C28.3413 14.2513 28.0911 14.0629 27.8097 13.9681C27.8097 13.6819 27.7185 13.3945 27.5199 13.1581C27.3141 12.9133 27.0345 12.7711 26.7411 12.7267C26.6913 12.4447 26.5515 12.1777 26.3151 11.9791C26.0703 11.7733 25.7697 11.6821 25.4733 11.6893C25.3755 11.4205 25.1913 11.1817 24.9243 11.0275C24.6471 10.8673 24.3357 10.8295 24.0453 10.8883C23.9019 10.6405 23.6793 10.4371 23.3895 10.3315C23.0889 10.2223 22.7757 10.2385 22.4997 10.3471C22.3155 10.1281 22.0611 9.96669 21.7569 9.91269C21.4419 9.85689 21.1365 9.92769 20.8833 10.0825C20.6643 9.89889 20.3853 9.78369 20.0763 9.78369C19.7565 9.78369 19.4679 9.90669 19.2453 10.1029C18.9975 9.96009 18.7029 9.89529 18.3993 9.94869C18.0843 10.0045 17.8215 10.1755 17.6361 10.4071C17.3673 10.3093 17.0655 10.2967 16.7757 10.4023C16.4751 10.5115 16.2459 10.7257 16.1037 10.9861C15.8217 10.9369 15.5229 10.9765 15.2559 11.1307C14.9787 11.2909 14.7903 11.5411 14.6955 11.8225C14.4093 11.8225 14.1219 11.9137 13.8855 12.1123C13.6407 12.3181 13.4985 12.5977 13.4541 12.8911C13.1727 12.9409 12.9051 13.0807 12.7071 13.3171C12.5013 13.5619 12.4101 13.8625 12.4173 14.1589C12.1485 14.2567 11.9097 14.4409 11.7555 14.7079C11.5953 14.9851 11.5575 15.2965 11.6163 15.5869C11.3685 15.7303 11.1651 15.9529 11.0595 16.2427C10.9503 16.5433 10.9665 16.8565 11.0751 17.1325C10.8561 17.3167 10.6947 17.5711 10.6407 17.8753C10.5849 18.1903 10.6557 18.4957 10.8105 18.7489C10.6269 18.9679 10.5117 19.2469 10.5117 19.5553C10.5117 19.8751 10.6347 20.1637 10.8303 20.3863C10.6875 20.6341 10.6227 20.9287 10.6761 21.2323C10.7313 21.5473 10.9029 21.8101 11.1345 21.9955C11.0367 22.2643 11.0241 22.5655 11.1297 22.8559C11.2389 23.1565 11.4531 23.3857 11.7135 23.5279C11.6643 23.8099 11.7039 24.1087 11.8581 24.3757C12.0183 24.6529 12.2685 24.8413 12.5499 24.9361C12.5499 25.2223 12.6411 25.5097 12.8397 25.7461C13.0455 25.9909 13.3251 26.1331 13.6185 26.1775L27.9429 24.7459L27.9423 24.7453Z" fill="#EBEBEB"/>
<path d="M17.4219 27.2754H22.9371V29.2344C22.9371 29.7768 22.4967 30.2166 21.9549 30.2166H18.4047C17.8623 30.2166 17.4225 29.7762 17.4225 29.2344L17.4219 27.2754Z" fill="#848484"/>
<path fill-rule="evenodd" clip-rule="evenodd" d="M30.0015 17.8999C30.5721 17.8999 31.0299 18.3907 30.9753 18.9589C30.4431 24.4525 25.8129 28.7467 20.1795 28.7467C14.5461 28.7467 9.91593 24.4519 9.38373 18.9589C9.32853 18.3907 9.78633 17.8999 10.3575 17.8999H30.0015Z" fill="#848484"/>
</g>
<defs>
<clipPath id="clip0_241_1649">
<rect width="24" height="24" fill="white" transform="translate(8.1795 8)"/>
</clipPath>
</defs>
</svg>
