<svg width="40" height="40" viewBox="0 0 40 40" fill="none" xmlns="http://www.w3.org/2000/svg">
<path d="M40 20C40 31.0457 31.0457 40 20 40C8.9543 40 0 31.0457 0 20C0 8.9543 8.9543 0 20 0C31.0457 0 40 8.9543 40 20Z" fill="#62C185"/>
<g clip-path="url(#clip0_298_2201)">
<path d="M27.4358 13.0172H12.5642C11.9324 13.0172 11.42 13.5296 11.42 14.1614V29.1812C11.42 29.8628 11.9726 30.4154 12.6542 30.4154H27.3464C28.028 30.4154 28.5806 29.8628 28.5806 29.1812V14.1608C28.5806 13.529 28.0682 13.0166 27.4364 13.0166L27.4358 13.0172Z" fill="#D0D5DA"/>
<path d="M16.8542 24.026C16.8542 24.1838 16.7264 24.3122 16.568 24.3122H15.4238C15.266 24.3122 15.1376 24.1844 15.1376 24.026V22.8818C15.1376 22.724 15.2654 22.5956 15.4238 22.5956H16.568C16.7258 22.5956 16.8542 22.7234 16.8542 22.8818V24.026ZM16.8542 20.0222C16.8542 20.18 16.7264 20.3084 16.568 20.3084H15.4238C15.266 20.3084 15.1376 20.1806 15.1376 20.0222V18.878C15.1376 18.7202 15.2654 18.5918 15.4238 18.5918H16.568C16.7258 18.5918 16.8542 18.7196 16.8542 18.878V20.0222ZM20.858 24.026C20.858 24.1838 20.7302 24.3122 20.5718 24.3122H19.4276C19.2698 24.3122 19.1414 24.1844 19.1414 24.026V22.8818C19.1414 22.724 19.2692 22.5956 19.4276 22.5956H20.5718C20.7296 22.5956 20.858 22.7234 20.858 22.8818V24.026ZM20.858 20.0222C20.858 20.18 20.7302 20.3084 20.5718 20.3084H19.4276C19.2698 20.3084 19.1414 20.1806 19.1414 20.0222V18.878C19.1414 18.7202 19.2692 18.5918 19.4276 18.5918H20.5718C20.7296 18.5918 20.858 18.7196 20.858 18.878V20.0222ZM24.8618 24.026C24.8618 24.1838 24.734 24.3122 24.5756 24.3122H23.4314C23.2736 24.3122 23.1452 24.1844 23.1452 24.026V22.8818C23.1452 22.724 23.273 22.5956 23.4314 22.5956H24.5756C24.7334 22.5956 24.8618 22.7234 24.8618 22.8818V24.026ZM24.8618 20.0222C24.8618 20.18 24.734 20.3084 24.5756 20.3084H23.4314C23.2736 20.3084 23.1452 20.1806 23.1452 20.0222V18.878C23.1452 18.7202 23.273 18.5918 23.4314 18.5918H24.5756C24.7334 18.5918 24.8618 18.7196 24.8618 18.878V20.0222Z" fill="#8A94A0"/>
<path d="M19.1984 27.3302H20.8016C21.2108 27.3302 21.5426 27.662 21.5426 28.0712V30.4154H18.4574V28.0712C18.4574 27.662 18.7892 27.3302 19.1984 27.3302Z" fill="#6B7683"/>
<path d="M22.4282 9.58521H17.5718C17.0174 9.58521 16.568 10.0346 16.568 10.589V15.4454C16.568 15.9998 17.0174 16.4492 17.5718 16.4492H22.4282C22.9826 16.4492 23.432 15.9998 23.432 15.4454V10.589C23.432 10.0346 22.9826 9.58521 22.4282 9.58521Z" fill="#EF4452"/>
<path d="M21.716 12.35H20.6672V11.1704C20.6672 11.0126 20.5394 10.8842 20.381 10.8842H19.6184C19.4606 10.8842 19.3322 11.012 19.3322 11.1704V12.35H18.2834C18.1256 12.35 17.9972 12.4778 17.9972 12.6362V13.3988C17.9972 13.5566 18.125 13.685 18.2834 13.685H19.3322V14.8646C19.3322 15.0224 19.46 15.1508 19.6184 15.1508H20.381C20.5388 15.1508 20.6672 15.023 20.6672 14.8646V13.685H21.716C21.8738 13.685 22.0022 13.5572 22.0022 13.3988V12.6362C22.0022 12.4784 21.8744 12.35 21.716 12.35Z" fill="white"/>
</g>
<defs>
<clipPath id="clip0_298_2201">
<rect width="24" height="24" fill="white" transform="translate(8 8)"/>
</clipPath>
</defs>
</svg>
