<svg width="40" height="40" viewBox="0 0 40 40" fill="none" xmlns="http://www.w3.org/2000/svg">
<path d="M40 20C40 31.0457 31.0457 40 20 40C8.9543 40 0 31.0457 0 20C0 8.9543 8.9543 0 20 0C31.0457 0 40 8.9543 40 20Z" fill="#FAB3FF"/>
<g clip-path="url(#clip0_298_2183)">
<path d="M23.3912 17.573C22.9856 17.573 22.6568 17.2442 22.6568 16.8386V13.376C22.6568 11.9108 21.4652 10.7186 19.9994 10.7186C18.5336 10.7186 17.342 11.9108 17.342 13.376V16.8386C17.342 17.2442 17.0132 17.573 16.6076 17.573C16.202 17.573 15.8732 17.2442 15.8732 16.8386V13.376C15.8732 11.1008 17.7242 9.25037 19.9988 9.25037C22.2734 9.25037 24.1244 11.1008 24.1244 13.376V16.8386C24.1244 17.2442 23.7956 17.573 23.39 17.573H23.3912Z" fill="#4E5968"/>
<path d="M26.3792 13.376H13.6208C13.1378 13.376 12.7274 13.7282 12.6536 14.2052L10.7348 26.6306C10.46 28.4096 11.8364 30.0152 13.6364 30.0152H26.3624C28.1624 30.0152 29.5388 28.4102 29.264 26.6306L27.3452 14.2052C27.2714 13.7282 26.861 13.376 26.378 13.376H26.3792Z" fill="#EF4452"/>
</g>
<defs>
<clipPath id="clip0_298_2183">
<rect width="24" height="24" fill="white" transform="translate(8 8)"/>
</clipPath>
</defs>
</svg>
