<svg width="40" height="40" viewBox="0 0 40 40" fill="none" xmlns="http://www.w3.org/2000/svg">
<path d="M40 20C40 31.0457 31.0457 40 20 40C8.9543 40 0 31.0457 0 20C0 8.9543 8.9543 0 20 0C31.0457 0 40 8.9543 40 20Z" fill="#6288C1"/>
<path d="M26.4074 18.8054H11.4836L10.0016 19.4252C9.19579 19.7624 8.67139 20.5502 8.67139 21.4238V25.8308C8.67139 26.429 9.15619 26.9138 9.75439 26.9138H30.1892C30.8186 26.9138 31.3292 26.4032 31.3292 25.7738V21.7814C31.3292 20.7266 30.6056 19.8092 29.579 19.5638L26.408 18.806L26.4074 18.8054Z" fill="#CBCFD2"/>
<path d="M26.9594 29.0467C28.376 29.0467 29.5244 27.8984 29.5244 26.4817C29.5244 25.0651 28.376 23.9167 26.9594 23.9167C25.5428 23.9167 24.3944 25.0651 24.3944 26.4817C24.3944 27.8984 25.5428 29.0467 26.9594 29.0467Z" fill="#313D4C"/>
<path d="M26.9594 27.5077C27.5261 27.5077 27.9854 27.0483 27.9854 26.4817C27.9854 25.915 27.5261 25.4557 26.9594 25.4557C26.3928 25.4557 25.9334 25.915 25.9334 26.4817C25.9334 27.0483 26.3928 27.5077 26.9594 27.5077Z" fill="#6B7683"/>
<path d="M13.0406 29.0467C14.4572 29.0467 15.6056 27.8984 15.6056 26.4817C15.6056 25.0651 14.4572 23.9167 13.0406 23.9167C11.624 23.9167 10.4756 25.0651 10.4756 26.4817C10.4756 27.8984 11.624 29.0467 13.0406 29.0467Z" fill="#313D4C"/>
<path d="M13.0406 27.5077C13.6072 27.5077 14.0666 27.0483 14.0666 26.4817C14.0666 25.915 13.6072 25.4557 13.0406 25.4557C12.4739 25.4557 12.0146 25.915 12.0146 26.4817C12.0146 27.0483 12.4739 27.5077 13.0406 27.5077Z" fill="#6B7683"/>
<path d="M26.4074 18.8053L24.4142 13.8421C24.0674 12.9781 23.2298 12.4117 22.2986 12.4117H15.614C14.6858 12.4117 13.8506 12.9745 13.5014 13.8343L11.4836 18.8053H26.4074Z" fill="#313D4C"/>
<path d="M31.3286 23.3228H30.8534C30.4598 23.3228 30.1406 23.0036 30.1406 22.61C30.1406 22.2164 30.4598 21.8972 30.8534 21.8972H31.3286V23.3228Z" fill="white"/>
<path d="M8.67139 23.3228H9.71659C10.1102 23.3228 10.4294 23.0036 10.4294 22.6106C10.4294 22.2176 10.1102 21.8978 9.71719 21.8978H8.67199V23.3228H8.67139Z" fill="#EF4452"/>
</svg>
