<svg width="40" height="40" viewBox="0 0 40 40" fill="none" xmlns="http://www.w3.org/2000/svg">
<circle cx="20" cy="20" r="20" fill="#FFE9B0"/>
<g clip-path="url(#clip0_370_2498)">
<path d="M20 8.84485C21.4154 8.84485 21.3884 9.36325 22.3418 9.41365C23.2952 9.46465 23.7938 9.16465 24.4376 9.25945C24.8852 9.32545 25.2218 9.52525 25.4546 9.72145C25.709 9.93625 25.751 10.31 25.5482 10.574L23.3306 13.4552C23.1332 13.6898 23.1572 14.0372 23.3888 14.2376C26.84 17.2274 31.1 20.8232 31.1 24.0518C31.1 29.4771 26.6468 31.1558 20 31.1558C13.3532 31.1558 8.90002 29.4771 8.90002 24.0518C8.90002 20.8238 13.16 17.2274 16.6112 14.2376C16.8428 14.0372 16.8668 13.6892 16.6694 13.4552L14.4518 10.574C14.249 10.31 14.291 9.93625 14.5454 9.72145C14.7782 9.52525 15.1148 9.32545 15.5624 9.25945C16.2062 9.16465 16.7054 9.46465 17.6582 9.41365C18.6116 9.36265 18.5846 8.84485 20 8.84485Z" fill="#FFC522"/>
<path d="M20.0498 14.8311C18.8852 14.8311 17.7182 14.7219 16.5794 14.5047C16.2164 14.4351 15.9788 14.0847 16.0478 13.7217C16.1174 13.3587 16.4684 13.1193 16.8308 13.1895C18.9422 13.5921 21.1616 13.5939 23.249 13.1895C23.6114 13.1169 23.963 13.3563 24.0332 13.7193C24.1034 14.0823 23.8658 14.4333 23.5028 14.5035C22.3766 14.7213 21.215 14.8305 20.0498 14.8305V14.8311Z" fill="#99452E"/>
<path d="M20.144 27.155C18.6032 27.155 17.4302 26.243 16.9394 25.6172C16.6532 25.2518 16.7174 24.7238 17.0828 24.4376C17.4464 24.1532 17.9708 24.215 18.2582 24.5762C18.3746 24.7196 19.4282 25.9448 21.08 25.2848C21.4814 25.1246 21.6644 24.8342 21.6374 24.6296C21.5966 24.317 21.0758 23.9432 20.0054 23.8148C17.3654 23.498 16.9676 22.0016 16.9082 21.5498C16.775 20.5298 17.4182 19.5518 18.509 19.1162C20.7158 18.2366 22.3262 19.4186 22.916 19.9676C23.2556 20.2832 23.2742 20.8154 22.958 21.155C22.6412 21.494 22.1108 21.5132 21.7706 21.197C21.2312 20.6942 20.3348 20.1968 19.1312 20.6774C18.7298 20.8376 18.5468 21.128 18.5738 21.3326C18.6146 21.6452 19.1348 22.019 20.2052 22.1474C22.8452 22.4642 23.243 23.9606 23.3024 24.4118C23.4362 25.4318 22.7924 26.4098 21.7022 26.8454C21.1526 27.0644 20.6294 27.1556 20.1434 27.1556L20.144 27.155Z" fill="#FFF3CC"/>
<path d="M20.1062 20.4824C19.6424 20.4824 19.2662 20.1068 19.2662 19.643V18.4454C19.2662 17.9816 19.6424 17.606 20.1062 17.606C20.57 17.606 20.9462 17.9816 20.9462 18.4454V19.643C20.9462 20.1068 20.57 20.4824 20.1062 20.4824Z" fill="#FFF3CC"/>
<path d="M20.1062 28.3561C19.6424 28.3561 19.2662 27.9805 19.2662 27.5167V26.3191C19.2662 25.8553 19.6424 25.4797 20.1062 25.4797C20.57 25.4797 20.9462 25.8553 20.9462 26.3191V27.5167C20.9462 27.9805 20.57 28.3561 20.1062 28.3561Z" fill="#FFF3CC"/>
</g>
<defs>
<clipPath id="clip0_370_2498">
<rect width="24" height="24" fill="white" transform="translate(8 8)"/>
</clipPath>
</defs>
</svg>
