<svg width="40" height="40" viewBox="0 0 40 40" fill="none" xmlns="http://www.w3.org/2000/svg">
<circle cx="20" cy="20" r="20" fill="#95FF63"/>
<g clip-path="url(#clip0_370_2501)">
<path d="M30.4454 18.6307L11.4326 23.2507V21.3817L30.4454 16.7617V18.6307Z" fill="#03905A"/>
<path d="M22.6041 11.7477L11.6997 22.6522C11.3246 23.0273 11.3246 23.6355 11.6997 24.0107L17.9194 30.2304C18.2945 30.6055 18.9028 30.6055 19.2779 30.2304L30.1823 19.3259C30.5575 18.9508 30.5575 18.3426 30.1823 17.9675L23.9626 11.7477C23.5875 11.3726 22.9793 11.3726 22.6041 11.7477Z" fill="#03905A"/>
<path d="M22.6038 9.76983L11.6993 20.6743C11.3242 21.0494 11.3242 21.6576 11.6993 22.0328L17.919 28.2525C18.2942 28.6276 18.9024 28.6276 19.2775 28.2525L30.182 17.348C30.5571 16.9729 30.5571 16.3647 30.182 15.9895L23.9623 9.76983C23.5871 9.3947 22.9789 9.3947 22.6038 9.76983Z" fill="#4FC578"/>
<path d="M18.4023 13.9713L15.9012 16.4723L23.4795 24.0505L25.9805 21.5495L18.4023 13.9713Z" fill="#7BD58F"/>
<path d="M29.8754 24.0692V30.2306C29.8754 30.3668 29.765 30.4766 29.6294 30.4766C28.6982 30.4766 27.9428 29.7218 27.9428 28.79V24.0692H29.8754Z" fill="#E5E8EB"/>
<path d="M25.0046 24.0692V28.4738C25.0046 28.6052 24.8978 28.712 24.7664 28.712C23.8652 28.712 23.1344 27.9812 23.1344 27.08V24.0692H25.0046Z" fill="#E5E8EB"/>
<path d="M29.8754 24.0692V26.3906H23.1344V24.0692C23.1344 22.2074 24.6434 20.6984 26.5052 20.6984C28.367 20.6984 29.8754 22.2074 29.8754 24.0692Z" fill="#E5E8EB"/>
<path d="M26.5046 23.5399C27.0386 23.5399 27.4718 23.9731 27.4718 24.5071V29.7517C27.4718 29.8879 27.3614 29.9977 27.2258 29.9977C26.294 29.9977 25.538 29.2423 25.538 28.3099V24.5065C25.538 23.9725 25.9712 23.5393 26.5052 23.5393L26.5046 23.5399Z" fill="#E5E8EB"/>
<path d="M15.9434 10.1378H9.78201C9.64581 10.1378 9.53601 10.2482 9.53601 10.3838C9.53601 11.315 10.2908 12.0704 11.2226 12.0704H15.9434V10.1378Z" fill="#E5E8EB"/>
<path d="M15.9434 15.0087H11.5388C11.4074 15.0087 11.3006 15.1155 11.3006 15.2469C11.3006 16.1481 12.0314 16.8789 12.9326 16.8789H15.9434V15.0087Z" fill="#E5E8EB"/>
<path d="M15.9434 10.1378H13.622V16.8788H15.9434C17.8052 16.8788 19.3142 15.3698 19.3142 13.508C19.3142 11.6462 17.8052 10.1378 15.9434 10.1378Z" fill="#E5E8EB"/>
<path d="M16.4732 13.508C16.4732 12.974 16.04 12.5408 15.506 12.5408H10.2614C10.1252 12.5408 10.0154 12.6512 10.0154 12.7868C10.0154 13.7186 10.7708 14.4746 11.7032 14.4746H15.5066C16.0406 14.4746 16.4738 14.0414 16.4738 13.5074L16.4732 13.508Z" fill="#E5E8EB"/>
</g>
<defs>
<clipPath id="clip0_370_2501">
<rect width="24" height="24" fill="white" transform="translate(8 8)"/>
</clipPath>
</defs>
</svg>
