<svg width="40" height="40" viewBox="0 0 40 40" fill="none" xmlns="http://www.w3.org/2000/svg">
<circle cx="20" cy="20" r="20" fill="#FF9597"/>
<g clip-path="url(#clip0_370_2495)">
<path d="M30.5 15.6602V22.76H9.5V15.6602C9.5 14.5556 10.3952 13.6604 11.4998 13.6604H28.4996C29.6042 13.6604 30.5 14.5556 30.5 15.6602Z" fill="#C3846C"/>
<path d="M30.5 22.76V27.26C30.5 28.3646 29.6048 29.2598 28.5002 29.2598H11.4998C10.3952 29.2598 9.5 28.3646 9.5 27.26V22.76H30.5Z" fill="#956759"/>
<path d="M24.7502 13.6604H23.2502C23.2502 12.4634 22.2764 11.4902 21.08 11.4902H18.92C17.7236 11.4902 16.7498 12.464 16.7498 13.6604H15.2498C15.2498 11.6366 16.8962 9.99023 18.92 9.99023H21.08C23.1038 9.99023 24.7502 11.6366 24.7502 13.6604Z" fill="#C3846C"/>
<path d="M21.9998 22.7397C21.9998 23.5461 21.3458 24.2001 20.5394 24.2001H19.4594C18.653 24.2001 17.999 23.5461 17.999 22.7397H21.9998Z" fill="#FFC33A"/>
</g>
<defs>
<clipPath id="clip0_370_2495">
<rect width="24" height="24" fill="white" transform="translate(8 8)"/>
</clipPath>
</defs>
</svg>
